/* XPM */
static char *a03abb0ca2e641be8f2d04517a20c7f9[] = {
/* columns rows colors chars-per-pixel */
"16 16 121 2 ",
"   c #B07827",
".  c #B6822F",
"X  c #B78330",
"o  c #B78431",
"O  c #B98731",
"+  c #B88532",
"@  c #B88537",
"#  c #B88736",
"$  c #BA8736",
"%  c #BC8A35",
"&  c #BC8937",
"*  c #BA8939",
"=  c #BB8939",
"-  c #BB8A39",
";  c #BC893A",
":  c #BD8A3B",
">  c #BC8C39",
",  c #BD8C3A",
"<  c #BE8F3D",
"1  c #BC8C3F",
"2  c #BE903A",
"3  c #BD903F",
"4  c #BF913E",
"5  c #C28F3A",
"6  c #C28F3B",
"7  c #C0903C",
"8  c #C2913D",
"9  c #C0933E",
"0  c #C0923F",
"q  c #C1933F",
"w  c #C1953D",
"e  c #BE8E43",
"r  c #BD8F51",
"t  c #BF9251",
"y  c #C19643",
"u  c #C19346",
"i  c #C39744",
"p  c #C29847",
"a  c #C39A46",
"s  c #C49946",
"d  c #C69C45",
"f  c #CA9B43",
"g  c #C99E46",
"h  c #C0914E",
"j  c #C39A48",
"k  c #C79C49",
"l  c #C5994F",
"z  c #C69C4C",
"x  c #C89F4B",
"c  c #C69A54",
"v  c #C8A14C",
"b  c #C8A24E",
"n  c #CAA34F",
"m  c #CBA54F",
"M  c #CBA551",
"N  c #CAA752",
"B  c #CEA850",
"V  c #CFAB53",
"C  c #CFAD55",
"Z  c #D3AD52",
"A  c #D2AF58",
"S  c #D1B158",
"D  c #D1B15B",
"F  c #D6B158",
"G  c #D6B45B",
"H  c #CBA364",
"J  c #D2AD6E",
"K  c #DABC65",
"L  c #D7B76D",
"P  c #D5B57F",
"I  c #DBC26A",
"U  c #DEC769",
"Y  c #DDC36E",
"T  c #DDC46D",
"R  c #DEC76E",
"E  c #DCC07E",
"W  c #E0C165",
"Q  c #E2C66B",
"!  c #E1C86A",
"~  c #E0C96F",
"^  c #E6CD71",
"/  c #E3CC79",
"(  c #E4D071",
")  c #E3D177",
"_  c #E9D073",
"`  c #E8D37A",
"'  c #E8D47C",
"]  c #D1B083",
"[  c #DBBC88",
"{  c #E1C680",
"}  c #E5D481",
"|  c #E6D686",
" . c #E9D780",
".. c #EADD85",
"X. c #EBDF85",
"o. c #E8DB89",
"O. c #E8DD8E",
"+. c #EADB93",
"@. c #EDE083",
"#. c #ECE18E",
"$. c #F2E182",
"%. c #F2E38E",
"&. c #F9EC8F",
"*. c #EBE395",
"=. c #EEE495",
"-. c #ECE496",
";. c #EDE696",
":. c #EEE69C",
">. c #EFE89C",
",. c #F3EA97",
"<. c #F4EB96",
"1. c #F6EC95",
"2. c #F8EE96",
"3. c #F0EA9B",
"4. c #F7EF98",
"5. c #FAF198",
"6. c #EFE1A4",
"7. c #F5EFA0",
"8. c #F7F1A2",
"9. c #FBF6A6",
"0. c None",
/* pixels */
"0.0.0.0.0.0.0.0.0.0.0.0.0.0.0.0.",
"0.0.0.0.0.0.0.0.0.0.0.0.0.0.0.0.",
"0.0.0.0.0.] l = > x E 0.0.0.0.0.",
"0.0.0.0.t + > 4 a C U | 0.0.0.0.",
"0.0.0.r X 7 = q m R #.-.} 0.0.0.",
"0.0.]   4 = 6 g Q 2.:.-.( { 0.0.",
"0.0.h % = 6 7 G &.,.9...R n 0.0.",
"0.0.; 7 , f B  .,.Y %.` D 2 0.0.",
"0.0.; 2 i Z ' 3.-.m ^ K v + 0.0.",
"0.0.c q B _ ,.8.5.k W v i @ 0.0.",
"0.0.[ q I o.7.4.$.F k p X H 0.0.",
"0.0.0.L ) >.=.X.! V a & 1 0.0.0.",
"0.0.0.0.+.O.@.~ S a O e 0.0.0.0.",
"0.0.0.0.0.6./ S s u J 0.0.0.0.0.",
"0.0.0.0.0.0.0.0.0.0.0.0.0.0.0.0.",
"0.0.0.0.0.0.0.0.0.0.0.0.0.0.0.0."
};
