/* XPM */
static char *eee14c7c0fa0445cf0d00034e412adc4[] = {
/* columns rows colors chars-per-pixel */
"32 32 137 2 ",
"   c #AD772B",
".  c #AF7A2E",
"X  c #B37A26",
"o  c #B37C2C",
"O  c #B87E28",
"+  c #AD7A31",
"@  c #B17E32",
"#  c #B7802D",
"$  c #B9832E",
"%  c #B58334",
"&  c #BA8534",
"*  c #BE8934",
"=  c #B58539",
"-  c #B98739",
";  c #B78A3B",
":  c #BC8C3B",
">  c #C18B34",
",  c #C18E3A",
"<  c #C39337",
"1  c #C3923C",
"2  c #C8973F",
"3  c #C7993E",
"4  c #BC8E41",
"5  c #BD9343",
"6  c #BB8C53",
"7  c #C08F49",
"8  c #C39542",
"9  c #C49A44",
"0  c #CA9C45",
"q  c #C1924B",
"w  c #C39B4A",
"e  c #C99D4B",
"r  c #C79952",
"t  c #C99E51",
"y  c #C59C59",
"u  c #CCA146",
"i  c #C5A14E",
"p  c #CBA24B",
"a  c #CFA84F",
"s  c #D0A74F",
"d  c #D3AE4E",
"f  c #C6A453",
"g  c #CAA552",
"h  c #CDAA55",
"j  c #CBA159",
"k  c #CAAB5A",
"l  c #D1AC53",
"z  c #D0AF59",
"x  c #CFB15F",
"c  c #D6B355",
"v  c #DAB757",
"b  c #D4B25C",
"n  c #D9B65C",
"m  c #DBBA5F",
"M  c #C79F6E",
"N  c #CDA464",
"B  c #CFA866",
"V  c #CEA96C",
"C  c #D3B561",
"Z  c #D4B963",
"A  c #DBBD64",
"S  c #D5BE69",
"D  c #DAB86E",
"F  c #CCA877",
"G  c #CCA87F",
"H  c #DCBC75",
"J  c #D6B37C",
"K  c #DEBF7B",
"L  c #DDC064",
"P  c #D7C06A",
"I  c #DBC36C",
"U  c #DBC571",
"Y  c #DFCC75",
"T  c #DFC17E",
"R  c #DECB79",
"E  c #E1C265",
"W  c #E2C76E",
"Q  c #E4CB6D",
"!  c #E8CE6D",
"~  c #E9D06F",
"^  c #E3CD7A",
"/  c #E7D276",
"(  c #EAD274",
")  c #E3D27D",
"_  c #EBD37A",
"`  c #EDDA7D",
"'  c #F1DD7F",
"]  c #F4E07D",
"[  c #CFAF87",
"{  c #D5B482",
"}  c #DABD88",
"|  c #DFC180",
" . c #DCCE82",
".. c #DDD182",
"X. c #DCD28F",
"o. c #DCD292",
"O. c #E0C485",
"+. c #E2C68A",
"@. c #E3C98E",
"#. c #E4D483",
"$. c #E4D882",
"%. c #EADC82",
"&. c #E2D58B",
"*. c #E9D38B",
"=. c #E6DA8B",
"-. c #E9DC8C",
";. c #F2DF82",
":. c #E5DC93",
">. c #EEDD95",
",. c #E4D09E",
"<. c #EDDD9E",
"1. c #ECE087",
"2. c #F4E386",
"3. c #F8EB87",
"4. c #F3E78D",
"5. c #F6E98B",
"6. c #F9EB8C",
"7. c #EBE293",
"8. c #E7E19D",
"9. c #ECE59B",
"0. c #F0E297",
"q. c #F4EB91",
"w. c #F9ED94",
"e. c #F3ED9C",
"r. c #FCF395",
"t. c #F7F19D",
"y. c #FCF49C",
"u. c #FFFB9E",
"i. c #F0EBA7",
"p. c #F2E7AE",
"a. c #F6F2A4",
"s. c #FAF5A3",
"d. c #FFFBA6",
"f. c #FBF6A9",
"g. c #FEFBAB",
"h. c #FFFFB2",
"j. c None",
/* pixels */
"j.j.j.j.j.j.j.j.j.j.j.j.j.j.j.j.j.j.j.j.j.j.j.j.j.j.j.j.j.j.j.j.",
"j.j.j.j.j.j.j.j.j.j.j.j.j.j.j.j.j.j.j.O.j.j.j.j.j.j.j.j.j.j.j.j.",
"j.j.j.j.j.j.j.j.j.T j.j.j.j.j.j.j.j.j.j.j.@.j.j.j.j.j.j.j.j.j.j.",
"j.j.j.j.j.j.j.j.j.j.j.j.j.j.j.j.j.j.j.j.j.j.j.j.j.j.j.j.j.j.j.j.",
"j.j.j.j.j.j.j.@.j.j.j.j.B 0 , & > * < t } j.j.j.j.O.j.j.j.j.j.j.",
"j.j.j.j.j.K j.j.j.j.y 9 , = = % = : 8 9 u n <.j.j.j.@.j.j.j.j.j.",
"j.j.j.j.j.j.j.j.[ 4 : % % : : 1 i 8 g g C U Q #.j.j.j.+.j.j.j.j.",
"j.j.j.j.j.j.j.M 4 = @ 1 * g 5 8 f e Z L / ` ..$.-.j.j.j.j.j.j.j.",
"j.j.j.H j.j.[ # @ @ > h : @ = 4 5 w g I ) q.t.X.) ^ j.j.| j.j.j.",
"j.j.j.j.j.j.o @ @ h 9 $ @ * 1 u a m Q ) ..e.7.e. .Q >.j.j.j.j.j.",
"j.j.j.O.j.6   + > 1 - - < 2 0 u b Q 2.r.t.o.8.y.%.I v j.j.H j.j.",
"j.j.H j.j.  o : h @ % > : 8 8 g E ) t.e.9.a.X.=.%.I d H j.j.+.j.",
"j.j.j.j.F X @ > , @ > 1 8 & 9 A ` 4.s.-.i.g.1.) 2.I g p j.j.j.j.",
"j.j.j.j.7 # % h = & , 0 e , l _ 3.y.6.#.g.y.w.U Y I i < j.j.j.j.",
"j.j.j.j.: # * 2 = : 2 0 p e A 3.r.d.;.U f.r.5.I C c 5 , } j.j.j.",
"j.O.j.j.> % : 9 = 1 0 u e A ) 7.0.-.A g U w.' Z z Z 5 * r j.@.j.",
"j.C j.j.* % : i - 9 u d z ;.=.7.=. .h 8 Z ] / C t g ; & q j.D j.",
"j.j.j.j.1 = & , 5 g l m / t.7.s.f.s.h 9 ' ~ L f g u = O { j.j.j.",
"j.j.j.j.r $ ; x w g A _ 5.a.9.g.d.u.e 7 ` L n 5 f g @ O j.j.j.j.",
"j.j.j.j.J $ : 0 p k Q 2.y.q.7.g.y.5.: - W m 9 5 9 & % & j.j.j.j.",
"j.j.j.j.j.* 5 p S P Y w.7.7...-.r.L p 9 g h ; f g o # N j.j.j.j.",
"j.j.j.j.j.N 3 w E /  .=.g.h.d.r.3.2.~ E h : w 1 % + * j.j.K j.j.",
"j.j.j.j.j.j.3 k U ` 9.9.X.7.r.6.] ! m i 4 , k : + , V j.j.j.j.j.",
"j.j.j.H T j.,.d R =.d.:.9.$.U U b k 9 9 k 0 $   - e j.j.H j.j.j.",
"j.j.j.j.j.j.j.<.( &.:.9.u.%.%.Q P c Z p 9 & + 4 r j.j.j.j.j.j.j.",
"j.j.j.j.j.K j.j.p.^ *.X.$.$.( L Z a p : % = 1 j j.j.+.j.j.j.j.j.",
"j.j.j.j.j.j.j.j.j.j.7.( Q L x k 9 5 : & > 0 J j.j.j.j.j.j.j.j.j.",
"j.j.j.j.j.j.j.O.j.j.j.j.*.E d u 3 < 1 r { j.j.j.j.j.j.j.j.j.j.j.",
"j.j.j.j.j.j.j.j.j.j.j.j.j.j.j.j.j.j.j.j.j.j.j.j.T j.j.j.j.j.j.j.",
"j.j.j.j.j.j.j.j.j.+.j.O.j.j.j.j.j.j.j.O.j.O.j.j.j.j.j.j.j.j.j.j.",
"j.j.j.j.j.j.j.j.j.j.j.j.j.j.j.j.T j.j.T j.j.j.j.j.j.j.j.j.j.j.j.",
"j.j.j.j.j.j.j.j.j.j.j.j.j.j.j.j.j.j.j.j.j.j.j.j.j.j.j.j.j.j.j.j."
};
