/* XPM */
static char *_4215fc848d441bdb1939578873e3443[] = {
/* columns rows colors chars-per-pixel */
"64 64 255 2 ",
"   c #A2631A",
".  c #AA6E1F",
"X  c #9F7331",
"o  c #AA6E26",
"O  c #A9692D",
"+  c #AD7220",
"@  c #AD752A",
"#  c #AE7A2F",
"$  c #B57C26",
"%  c #B1762A",
"&  c #B37B2C",
"*  c #B97D2B",
"=  c #A27533",
"-  c #A87530",
";  c #A57935",
":  c #AB7C34",
">  c #AB7E38",
",  c #B27E32",
"<  c #B87F30",
"1  c #B27C3D",
"2  c #B17D43",
"3  c #B7802E",
"4  c #BA832D",
"5  c #AD8036",
"6  c #AD833B",
"7  c #AF893B",
"8  c #B58234",
"9  c #BB8533",
"0  c #BE8A34",
"q  c #B3863A",
"w  c #BA8738",
"e  c #B48A3C",
"r  c #BC8B3A",
"t  c #BE9135",
"y  c #BD923D",
"u  c #C0862E",
"i  c #C2882F",
"p  c #C08732",
"a  c #C28B35",
"s  c #C28E3A",
"d  c #C39037",
"f  c #CB9B34",
"g  c #C3933D",
"h  c #C8963F",
"j  c #C49A3E",
"k  c #CA9B3D",
"l  c #CDA13E",
"z  c #AB8540",
"x  c #AD8A42",
"c  c #B08740",
"v  c #B38C42",
"b  c #BC8B43",
"n  c #B4824A",
"m  c #BE8E49",
"M  c #B69246",
"N  c #BC9344",
"B  c #BF9A47",
"V  c #B5924B",
"C  c #BC944A",
"Z  c #BD9B4C",
"A  c #B98954",
"S  c #BD9E53",
"D  c #BDA255",
"F  c #BCA45A",
"G  c #BE9162",
"H  c #BCA764",
"J  c #BFAB61",
"K  c #BDAA6C",
"L  c #BEAC71",
"P  c #BFAD78",
"I  c #C18F41",
"U  c #C39442",
"Y  c #C89740",
"T  c #C59943",
"R  c #CA9C45",
"E  c #C3934A",
"W  c #C49D4B",
"Q  c #CA9E49",
"!  c #C59554",
"~  c #C49C52",
"^  c #CA9E51",
"/  c #C99E5C",
"(  c #C1A147",
")  c #CEA345",
"_  c #C4A14E",
"`  c #CCA34C",
"'  c #CEA94E",
"]  c #D0A546",
"[  c #D0A64B",
"{  c #D2A94E",
"}  c #D0B14F",
"|  c #C4A354",
" . c #CBA452",
".. c #C5AB56",
"X. c #CDAA54",
"o. c #C1A559",
"O. c #CBA45B",
"+. c #C6AB5B",
"@. c #CBAC5C",
"#. c #D3AC53",
"$. c #D3AE5A",
"%. c #CAB35F",
"&. c #CEB95D",
"*. c #D5B155",
"=. c #D9B455",
"-. c #D5B25C",
";. c #DAB65B",
":. c #D5B958",
">. c #DCBA5D",
",. c #C19665",
"<. c #C49B76",
"1. c #CCA362",
"2. c #C1AC62",
"3. c #CCAB62",
"4. c #CBA26B",
"5. c #C1AD69",
"6. c #D1AD62",
"7. c #D2AF6E",
"8. c #C5B265",
"9. c #CDB362",
"0. c #C7B867",
"q. c #CFBB62",
"w. c #C6B369",
"e. c #C8B66B",
"r. c #C5B96B",
"t. c #CEB969",
"y. c #D5B362",
"u. c #D8B466",
"i. c #D5BB64",
"p. c #DBBC63",
"a. c #D3B368",
"s. c #D9B66A",
"d. c #D3BC6A",
"f. c #D9BA6D",
"g. c #C1AF74",
"h. c #CFA970",
"j. c #D2AD74",
"k. c #D0AB79",
"l. c #C3B270",
"z. c #C7BD76",
"x. c #CABA73",
"c. c #C5B479",
"v. c #C6BB79",
"b. c #CCBD78",
"n. c #DBBB74",
"m. c #D5B27A",
"M. c #DDBE7A",
"N. c #DEC164",
"B. c #D3C26A",
"V. c #DDC36A",
"C. c #D4C475",
"Z. c #DAC573",
"A. c #D4CA77",
"S. c #DBCB75",
"D. c #D4C57D",
"F. c #DEC17E",
"G. c #D5CA7F",
"H. c #DBCC7C",
"J. c #DAD076",
"K. c #DED57F",
"L. c #E2C363",
"P. c #E4C865",
"I. c #E2C56B",
"U. c #E4CB6C",
"Y. c #E9CD6D",
"T. c #EAD16E",
"R. c #E1C674",
"E. c #E4CC72",
"W. c #E9CE70",
"Q. c #E2CD7A",
"!. c #E4D274",
"~. c #EBD374",
"^. c #EFD977",
"/. c #E6D37B",
"(. c #EBD67B",
"). c #EEDA7C",
"_. c #F0D977",
"`. c #F0D778",
"'. c #F1DC7D",
"]. c #EFE17B",
"[. c #F5E27E",
"{. c #CDBF84",
"}. c #D8B881",
"|. c #D6C782",
" X c #DFC282",
".X c #D6CC80",
"XX c #D9CD83",
"oX c #D1C58C",
"OX c #D7CB8B",
"+X c #D9CD8A",
"@X c #DBD386",
"#X c #DCD38A",
"$X c #E0C486",
"%X c #E2CE83",
"&X c #E1C68B",
"*X c #E3C98B",
"=X c #E3D482",
"-X c #E9D681",
";X c #E4D984",
":X c #EDDC83",
">X c #E2D789",
",X c #E5DB8B",
"<X c #EBDD8C",
"1X c #F1DD82",
"2X c #F0DF88",
"3X c #E4CB92",
"4X c #E5CD99",
"5X c #E1D791",
"6X c #E7DE94",
"7X c #EEDD96",
"8X c #E7D39F",
"9X c #E1DB9D",
"0X c #EDE186",
"qX c #EDE38C",
"wX c #F5E384",
"eX c #F8E783",
"rX c #F6E986",
"tX c #FAE985",
"yX c #F3E48C",
"uX c #F5EB8C",
"iX c #F9EC8C",
"pX c #FCF18D",
"aX c #EDE393",
"sX c #EFE892",
"dX c #ECE49A",
"fX c #EDEA9E",
"gX c #F1E693",
"hX c #F5EB94",
"jX c #FBEE92",
"kX c #F0E69A",
"lX c #F4EC9A",
"zX c #F9EF99",
"xX c #FCF294",
"cX c #FEF996",
"vX c #F6F19E",
"bX c #FBF49B",
"nX c #FFFA9D",
"mX c #E7E1A7",
"MX c #EBE7A2",
"NX c #EFE9A3",
"BX c #EFEAAC",
"VX c #F4EEA3",
"CX c #F3EDAB",
"ZX c #F5F1A2",
"AX c #FBF5A2",
"SX c #FEFAA4",
"DX c #F5F2AC",
"FX c #FBF6A9",
"GX c #FEFCAB",
"HX c #F7F1B2",
"JX c #FAF7B3",
"KX c #FFFEB3",
"LX c #FCF7B9",
"PX c #FEFDBA",
"IX c None",
/* pixels */
"IXIXIXIXIXIXIXIXIXIXIXIXIXIXIXIXIXIXIXIXIXIXIXIXIXIXIXIXIXIXIXIXIXIXIXIXIXIXIXIXIXIXIXIXIXIXIXIXIXIXIXIXIXIXIXIXIXIXIXIXIXIXIXIX",
"IXIXIXIXIXIXIXIXIXIXIXIXIXIXIXIXIXIXIXIXIXIXIXIXIXn.M.IXIXIXIX{ IXIXIXIXIX[ IXIXIXIXIXIXIXIXIXIXIXIXIXIXIXIXIXIXIXIXIXIXIXIXIXIX",
"IXIXIXIXIXIXIXIXIXIXIXIXIXIXIXIXIXIXIXIXIXIXF.$.IXIX-.IXIXIXIX-.f.IXIXIXIX&X*.IXIXIXIXIXIXIXIXIXIXIXIXIXIXIXIXIXIXIXIXIXIXIXIXIX",
"IXIXIXIXIXIXIXIXIXIXIXIXIXIXIXIXIXIXIXIXIXIXIX#.IXIX{ IXIXIXIX#.M.IXIXIXIXIX$.3XIXIXIX#.IXIXIXIXIXIXIXIXIXIXIXIXIXIXIXIXIXIXIXIX",
"IXIXIXIXIXIXIXIXIXIXIXIXIXIXIXIXIXIX$.&XIXIXIX$.IXIX#.IXIXIXIX{ IXIXIXIXIXIXIX] IXIXl IXIXIX$XIXIXIXIXIXIXIXIXIXIXIXIXIXIXIXIXIX",
"IXIXIXIXIXIXIXIXIXIXIXIXIXIXIXIXIXIXIX] IXIXIXn.n.IXn.s.IXIXIXIXIXIXIXIXIXIXIXs.IXIX-.IXIXIXIXIXIXIXIXIXIXIXIXIXIXIXIXIXIXIXIXIX",
"IXIXIXIXIXIXIXIXIXIXIXIXIXIXIXIXIXIXIXy.&XIXIXIXs.IXIXIXIXIXIXIXIXIXIXIXIXIXIXIXIXIXy.IXIXIXIX4X] IXIXIXIXIXIXIXIXIXIXIXIXIXIXIX",
"IXIXIXIXIXIXIXIXIXIXIXIXIX] IXIXIXIXIXIX] IXIXIXIXIXIXIXIXm.1.! u U 1.m.IXIXIXIXIXIXIXIXIXIXIXk IXIXIX&XIXIXIXIXIXIXIXIXIXIXIXIX",
"IXIXIXIXIXIXIXIXIXIXIXIXIXIX) IXIXIXIXIXIXIXIXIXIX/ U s 9 0 a 0 s p 9 4 4 d U 7.IXIXIXIXIXIXIXs.IXIXIX] IXIXIXIXIXIXIXIXIXIXIXIX",
"IXIXIXIXIXIXIXIXIXIXIXIXIXIXM.u.IXIXIXIXIXIX4.r R 4 { R T j s 9 g s g g a g t s g Q *XIXIXIXIXIXIXIX#.&XIXIXIXIXIXIXIXIXIXIXIXIX",
"IXIXIXIXIXIXIXIXIXIXIXIXIXIXIX#.M.IXIXIX,.9 r $. .I s g t w 8 8 q w r U T ) ) g T Q T N.7XIXIXIXIX$.s.IXIX{ u.IXIXIXIXIXIXIXIXIX",
"IXIXIXIXIXIXIXIXIXIX#.{ s.IXIXIXIXIXIXo | ^ $.Y s 9 : ; : : 1 > 5 6 6 q x M W X.*.;.#.I.{ 1XIXIXIXIXIXIX] n.IX$XIXIXIXIXIXIXIXIX",
"IXIXIXIXIXIXIXIXIXIXIXIXs.] IXIXIX,.8 O.s  .9 , ; : 8 w 0 a a a t s g Q Q R W Z F i.).P.I.$.!.CXIXIXIX]  XIXIX#.IXIXIXIXIXIXIXIX",
"IXIXIXIXIXIXIXIXIXIXIXIXIXIXIXIXn v 1.~ p 3 ; > 9 a g N r 9 a Q %XT U W {  .*.p.p.+.J ;XrX/.y.%XdXIXIX4XIXIX#.y.IXIXIXIXIXIXIXIX",
"IXIXIXIXIXIXIXIXIXIXIXIXIXIXIX1 m 1.E , 1 ; 9 p 9 9 a 6X9.8 a W G.M ` R H.;X[ N.W.].).e.b.hXuX3.ZXkXIXIXIX#.u.IXIXIX3XIXIXIXIXIX",
"IXIXIXIXIXIXIXIXIXIXIXIXIXIXO N ~ r & = , a s W t a 0 | q w U U r T { ' ..D >.U.U.-X0XcXXXL sXKXF.f.kXIXIXIXIXIX X] s.IXIXIXIXIX",
"IXIXIXIXIXy.#.$XIXIX&XIXIXn U , r # = w a 9 ` NXx 9 i 9 9 w q v v M N E X.-.E.).J.,X!.xXSXaXL aXlXn.d.vXIXIXIX#.#.$XIXIXIXIXIXIX",
"IXIXIXIXIXIX&X) M.IXIXIX<.8 b I % ; 9 9 a a d C 9 3 , > 6 7 y U T W W W Z D 6.-X<X0.qXbXvXKXDXK qXqXa.N.JXIXIXM.IX$XIXIXIXIXIXIX",
"IXIXIXIXIXIXIXIX#.&XIXIXo w s @ ; 3 g  .j a d a 8 ; : 9 s R R R ]  .*.>.I.U.d.2.H.zXSXGXsXaXVXVXH uX/.y.V.IXIXIXIXIXIXIXIXIXIXIX",
"IXIXIXIX] IXIXIXIXIXIX2 # N @ ; , p g aXF * g : : a g s s U Q ] ' #.-.N.E.).tXuXC.l.VXVX.XK.0XGX,XJ uX!.'./.IXIXIXIXIXIXIXIXIXIX",
"IXIXIXIXIX#.] u.IXIXIX  r # # ; i 9 9 j r a = w a a h Y T g T ] X.=.L.E.(.wXiXxXSX6XK BX9XXXlXcXnXC.d.rX` :.IXIXIXIXs.{ ] *XIXIX",
"IXIXIXIXIXIXIXs.IXIX1 & @ * = 9 3 4 a i 0 ; s d g g h h Q ` Q ` *.f.I.~.yXhXjXbXnXGXBXP BXKXGXyXuXpXF W.I.) I.IXIX] s.IXIXIXIXIX",
"IXIX&X) $.IXIXIXIXIXo w 3 : , 9 d..., a ; 9 a d d U Y Q ` ] #.[ *.I./.1XrXzXZXAXSXGXKXNXg.AXfXqXqX).J.| U.*.k IXIXIXIXIXIXy.IXIX",
"IXIXIXIXn.] #.IXIXA $ 9 , : i p Q.8.& : 8 a 0 8 , a r r r q M $.L.U.Z.=XvXZXAXqXC.D.SXGX@Xx.sXz.J.).[.Z >.#.` d.IXIXu.#.k 3XIXIX",
"IXIXIXIXIXIXIXIXIX% 8 < , 5 a a 4 9 3 ; w s g s s s a a 5 W :.N.W.(.:XyXZXGXcXx.mXHXGXAXnXe.;X/.<X1X).9._ :.R ' IXIXIXIXIXIXIXIX",
"IXIXIXIXIXIXIXIXIX+ 3 9 : 9 4 p g a : 9 w r g h R U 9 s v ;.p.W.(.wXjXxXzXbXwX|.PXKXGXbXcXqXe.pXwX/.~.I.V ;.[ d IXIXIXIXIXIXIXIX",
"IXIXIXIXIXIXIXIX4.$ 9 9 : 9 T B 8 s ; a a s I Y ` Q w s N N.I.~.'.iXjXbXhXxX).+XKXSXFXAXxXcXw.W.W.!.R.I.V ` T s n.IXIXIXIXIXIXIX",
"IXIXIXIXIXIXIXIXb * a 8 : u S.@X& q 8 a a g U R ` ` g R Z I.~.1XuXpXzXAXzXtXI.OXKXSXzXzXzXjXZ.a.i..XS.;.S C Q t / IXIXIXIXIXIXIX",
"IXIXIXIXIXIXIXIX8 3 9 8 8 a d g 0 5 9 d g U Y R ` ` Y ] | W.).wXjXxXcXSXlX^.>..XKXFXbXjXjXyX/.o.I.@.} >.` v ` g U IXIXIXIXIXIXIX",
"IXIXIXIXIXIXIXIX3 a a : 0 d a i a > a g h R R Q {  .Q *.+.(.wXiXpXbXAXGXkXW.#.G.KXSXAXjXrX1X:XF V.I.>.{ | 6 Y I s IXIXIXIXIXIXIX",
"IXIX&XIXIXIXIXIX9 a a : 9 a 4 0 0 > g h Y R ] ` T ` X.N.E.yXgXZXZXkXhXyX/.p.X.X.$.%XbXhX1X`.W.| y.>.{ #.` 6 j a 9 IXIXIXIXM.IXIX",
"IX X#.u.&XIXIXIX9 9 a : a N S.7 t 6 d U R ` ] { C W y.).C.A.XX+X+X#XXXD.f.*.Q S o.Z.jXyX:X~.Y.S $.+.<XX.R > g r 0 IXIXIXn.{ n.IX",
"IX&Xf ] IXIXIXIX9 9 a ; 9 T <XM y q h Y R ` ' { #.p.U.uX;XzXZXvXxXhXkXaXI.` I  .N.:XwX:X:X/.Y.Z  .Z S._ T ; s w 9 IXIXIXs.f u.IX",
"IXIX$Xn.IXIXIXIX9 0 a : 0 0 0 d I x R Q ` ` #.-._ @.wXxX>X+X#XH.H.A.d.8. .R s v q 9.rXW.Y.R.Z.C ` ` T R U : s w * IXIXIXM.&XM.IX",
"IXIXIXIXIXIXIXIXi 9 a : 9 p a s R x Q ` ] #.=.p.E.!.pXAX|.uXzXAXFXJXFXGXQ.s < t.xX'.`.W.I.p.y.V #.) R Y N ; 0 0 , IXIXIXIXIXIXIX",
"IXIXIXIXIXIXIXIXg 0 a : , r t e N C T { #.-.N.U.~.-XbXGX+XAXSXGXKXSXSXGXE.9 , y.[.`.W.P.I.p.#.v  .X.` g r : w 9 9 IXIXIXIXIXIXIX",
"IXIXIXIXIXIXIXIX~ 4 g 8 , r d.@Xr ~ B { *.p.U.(.'.wXFXKXG.AXGXKXGXSXzXnXZ.3 & y.1XY.Y.L.>.>.| r y @X%Xs , : 4 4 m IXIXIXIXIXIXIX",
"IXIXIXIXIXIXIXIXj.* a i > s O.y.T ' M *.;.I.~.-XiXjXGXSX.XGXKXGXAXAXcXcXN.& % @.:XE.N.;.-.*.x R N ( W g : 8 0 4 4.IXIXIXIXIXIXIX",
"IXIXIXIXIXIXIXIXIX$ 0 d 6 T T T Q *.o.X.L.W.).yXjXzXAXxXH.KXKXSXbXbXxXcXp.% @ +.).I.p.;.{ ` c Q Q g a r = 9 a 3 IXIXIXIXIXIXIXIX",
"IXIXIXIXIXM.IXIXIX0 9 s q r ] ` ` B f.D W.(.wXjXcXAXbXpX/.DXKXGXcXxXxXjXQ $ % W W.I.>.#.*.6 N T s U s # # r s 3 IXIXIX$.s.IXIXIX",
"IXIXIXs.] y.y.IXIX1.9 s R 6 ) ] B.8.-.e.9.rXpX<X#X#X-XH.p.a.9.sXAXpXX.b # # # , r B -.-.C 6 r 2.%Xa a ; , s 0 ! IXIXn.n.$.-.IXIX",
"IXIXIXs.IXIXIXIXIXIX4 d W M C ` Q.H.p.).5.(.cXlXqXsXMXMXfXaX6XuXzXzX).W.E.N.p.-.X.` { ` > T r ..d.9 , - a U $ IXIX&XIXIXIXIXIXIX",
"IXIXIXIXIXIXIXIXIXIX^ 9 T  .x #.;.>.~.1XqXL <XSXGXGXGXKXKXSXcXxXtXiXyX'.~.Y.P.>.;.{ ` 6 U R U 0 4 4 = , 9 a N IXIX#.{ u.IXIXIXIX",
"IXIXIXIXIXIXIXIXIXIXIXi s { W Z P.W.!.B.H.NXL ,XKXKXKXnXnXAXzXpXiX[.).(.Y.L.>.;.=.W > N N T s r a : - 3 ' 4 IXIXIXIXIXn.{ s.IXIX",
"IXIXIXIXIXIXIXIXM.IXIXO.T R *.D i.'.W.K.G.gXFXc.{.DXKXSXcXxXxXiXrX].T.Y.I.L.>.#.M 6 T 0 F dXy 0 8 X < ` g m IXIXF.IXIXIXIXIXIXIX",
"IXIXIXIXIXIXIX{ -.IXIXIXy T #.I.F /.0XqXqXSXGXKX,XK D.fXcXcXpXiX[.^.T.Y.L.*.Z z N k R s j ..w * = & W ` 0 IXIXIXIXIXIXIXIXIXIXIX",
"IXIXIXIXIX#.{ &XIXIXIXIX8Xj _ L./.H qXnXbXFXNXv.MXvXS.0.5.d.S.E.I.N.9.| M v M R y Z T d 0 3 9 X @ Q ` T k.IXIX] IX$XIXIXIXIXIXIX",
"IXIXIXIXIX&XIXu.y.[ IXIXIX%X) $.(.qXK 6XGXSX=X,X;XGXSX0X:XV.9.@...| B _ ] ) [ ) C fXX.0 0 3 = & I w  .! IXIXIXIX] #.IXIXIXIXIXIX",
"IXIXIXIXIXIX4Xu.IXIXIXIXIXIX/.:.p.xXkXg.OXPXVXsXsXbXhXr.S.wX[.U.>.N.L.*.Z %.R R j ` I 9 , = % E O.^ , IXIXIXIXIXIXM.] IXIXIXIXIX",
"IXIXIXIXIXIXn.IXIXIXIX) IXIXIX2XuX$.yXDXoXc.dXGXGXvX!.;X;X).`.&.G.p.;.{ q.aXk h d a 0 ; - $ ! O.~ b IXIXIXs.] n.IXIXIXIXIXIXIXIX",
"IXIXIXIXIXIXIXIXIXIX3Xs.IXIXIXIX7X/.6.<XVXMXl.z.aXcXnX(.).~.W.:.=Xi.#.' ) _ R k r > - & 4 O.1.W E IXIX&XIXIXIX] IXIXIXIXIXIXIXIX",
"IXIXIXIXIXIXIXIXIXIX{ &XIXIXIXIXIXHX<Xa.%X<XGX-Xe.0.A.-X).~.W.I.*.=.*.{ ` g e > : , 4 R U  .g 1.IXIXIX$X] IXIXIXn.IXIXIXIXIXIXIX",
"IXIXIXIXIXIXIXIXIX] n.IXIXIXIXF.IXIXIXZXp.sXR.yXrX).V...F S S Z Z M e x 6 > 5 0 0 U #.^ ' $ IXIXIXIXIXIXIX) $XIXIXIXIXIXIXIXIXIX",
"IXIXIXIXIXIXIXIXIXIXIXIXIXIX&X-.IXIXIXIXLXhX>.p.I.N.Y.~.U.p.$. .W T T U j g U g R ` d g 4.IXIXIXIXIXl &XIXIX] IXIXIXIXIXIXIXIXIX",
"IXIXIXIXIXIXIXIXIXIXIXIXIXIXk IXM.&XIXIXIXIXLX/.P.>.` P.{ #.#.{ R ) T U j s g 3 t s h.IXIXIXIXn.IXIXIX) IXIXIXIXIXIXIXIXIXIXIXIX",
"IXIXIXIXIXIXIXIXIXIXIXIXIX] IXIX#.IXIXIXIXIXIXIXIX7XZ.L.] l R j s j 0 t 0 0 g / IXIXIXIXIX$XIX{ IXIXIXn.IXIXIXIXIXIXIXIXIXIXIXIX",
"IXIXIXIXIXIXIXIXIXIXIXIXIX&XIXIXIXIXIX$Xu.IXIXIXIXIXIXIXIX4XM.y.@.6.7.}.IXIXIXIXIXIXIX&XIXIXIX&X] IXIXIXIXIXIXIXIXIXIXIXIXIXIXIX",
"IXIXIXIXIXIXIXIXIXIXIXIXIXIXIXIXIXIXIX] IXIXIX$XIXIXIXIXIXIXIXIXIXIXIXIXIXIXIXIXIXIXn.IXIXIXIXIXM.$.IXIXIXIXIXIXIXIXIXIXIXIXIXIX",
"IXIXIXIXIXIXIXIXIXIXIXIXIXIXIXIXIXIXn.n.IXIX&Xy.IXIXn.IXIXIXIXIXIXIXIXIXIXu.M.IXIXIX-.M.IXIXIXIXIXIXIXIXIXIXIXIXIXIXIXIXIXIXIXIX",
"IXIXIXIXIXIXIXIXIXIXIXIXIXIXIXIXIXIX] IXIXIX] IXIXIX{ IXIXIXIXIX] IXIXu.IXIXu.IXIXIXIXl IXIXIXIXIXIXIXIXIXIXIXIXIXIXIXIXIXIXIXIX",
"IXIXIXIXIXIXIXIXIXIXIXIXIXIXIXIXIXIXIXIXIXIX#.IXIXIXk IXIXIXIXIX{ IXIX) IXIX] IXIXIXIXIXu.IXIXIXIXIXIXIXIXIXIXIXIXIXIXIXIXIXIXIX",
"IXIXIXIXIXIXIXIXIXIXIXIXIXIXIXIXIXIXIXIXIXIXIXIXIXf.$XIXIXIXIXIX#.IXIX] IXIX#.IXIX XIXIXIXIXIXIXIXIXIXIXIXIXIXIXIXIXIXIXIXIXIXIX",
"IXIXIXIXIXIXIXIXIXIXIXIXIXIXIXIXIXIXIXIXIXIXIXIXIXIXIXIXIXIXIXIX) IXIXF.IXIXM.IXIXIXIXIXIXIXIXIXIXIXIXIXIXIXIXIXIXIXIXIXIXIXIXIX",
"IXIXIXIXIXIXIXIXIXIXIXIXIXIXIXIXIXIXIXIXIXIXIXIXIXIXIXIXIXIXIXIXIXIXIXIXIXIXIXIXIXIXIXIXIXIXIXIXIXIXIXIXIXIXIXIXIXIXIXIXIXIXIXIX"
};
